<svg version="1.1" id="Layer_1" xmlns="http://www.w3.org/2000/svg" xmlns:xlink="http://www.w3.org/1999/xlink" x="0px" y="0px"
	 width="100%" viewBox="0 0 500 500" enable-background="new 0 0 500 500" xml:space="preserve">
<path fill="#FFFFFF" opacity="1.000000" stroke="none" 
	d="
M300.000000,501.000000 
	C200.000031,501.000000 100.500046,501.000000 1.000053,501.000000 
	C1.000036,334.333405 1.000036,167.666794 1.000018,1.000143 
	C167.666565,1.000095 334.333130,1.000095 500.999756,1.000048 
	C500.999847,167.666519 500.999847,334.333038 500.999939,500.999786 
	C434.166656,501.000000 367.333344,501.000000 300.000000,501.000000 
M35.953583,344.419373 
	C36.608780,364.849121 45.711468,380.647980 63.217911,390.851532 
	C116.398621,421.847656 169.748001,452.556366 223.168777,483.137573 
	C241.680359,493.734680 260.798218,493.687256 279.278076,483.119110 
	C332.278625,452.809509 385.163391,422.295593 437.948425,391.612091 
	C456.482819,380.838257 466.466217,364.429810 466.518341,342.778076 
	C466.665527,281.631439 466.684082,220.483887 466.510010,159.337387 
	C466.448120,137.592407 456.675323,120.974266 437.857422,110.066368 
	C385.466400,79.697617 333.033905,49.399368 280.504181,19.271385 
	C261.022705,8.097935 241.178635,8.213677 221.662781,19.385988 
	C191.920410,36.412739 162.290222,53.635464 132.608185,70.767654 
	C109.410248,84.157280 86.019112,97.224991 63.065174,111.020340 
	C45.591850,121.521843 35.998466,137.224930 35.976078,158.000229 
	C35.909458,219.813599 35.952442,281.627106 35.953583,344.419373 
z"/>
<path fill="#FA541D" opacity="1.000000" stroke="none" 
	d="
M35.953087,343.929962 
	C35.952442,281.627106 35.909458,219.813599 35.976078,158.000229 
	C35.998466,137.224930 45.591850,121.521843 63.065174,111.020340 
	C86.019112,97.224991 109.410248,84.157280 132.608185,70.767654 
	C162.290222,53.635464 191.920410,36.412739 221.662781,19.385988 
	C241.178635,8.213677 261.022705,8.097935 280.504181,19.271385 
	C333.033905,49.399368 385.466400,79.697617 437.857422,110.066368 
	C456.675323,120.974266 466.448120,137.592407 466.510010,159.337387 
	C466.684082,220.483887 466.665527,281.631439 466.518341,342.778076 
	C466.466217,364.429810 456.482819,380.838257 437.948425,391.612091 
	C385.163391,422.295593 332.278625,452.809509 279.278076,483.119110 
	C260.798218,493.687256 241.680359,493.734680 223.168777,483.137573 
	C169.748001,452.556366 116.398621,421.847656 63.217911,390.851532 
	C45.711468,380.647980 36.608780,364.849121 35.953087,343.929962 
M237.000519,177.772934 
	C216.749176,185.284302 196.288727,192.285370 176.313431,200.470398 
	C160.666367,206.881882 145.300812,214.163345 130.392700,222.146103 
	C114.013771,230.916458 105.113441,250.317810 108.255165,267.233154 
	C112.030479,287.559814 128.083755,304.067505 146.809906,306.879211 
	C168.501404,310.136200 186.267365,301.216431 196.054718,280.368652 
	C206.354446,258.429443 215.574783,235.973358 224.891327,213.586884 
	C229.734039,201.950485 233.766907,189.977051 238.539810,177.976044 
	C238.489243,177.749924 238.438675,177.523788 238.388092,177.297653 
	C238.181610,177.453094 237.975113,177.608521 237.000519,177.772934 
M303.748657,191.735123 
	C290.665436,187.003326 277.582245,182.271515 263.254700,177.089676 
	C268.522003,191.122070 273.080902,203.592300 277.875885,215.971115 
	C286.873962,239.200958 294.774170,262.899902 307.779816,284.402954 
	C318.245087,301.705811 333.186584,309.517578 353.384064,307.010010 
	C377.963989,303.958313 396.879852,279.076752 393.266815,254.744110 
	C390.746979,237.773987 380.980316,225.973129 366.119965,218.922409 
	C345.874054,209.316467 325.065094,200.897293 303.748657,191.735123 
M296.332001,172.149368 
	C300.643250,173.801743 304.954498,175.454102 309.378113,177.149551 
	C309.620728,176.247726 309.816010,175.792404 309.851410,175.324982 
	C309.901428,174.664566 309.881042,173.989944 309.808746,173.330399 
	C308.295013,159.523972 303.457916,147.160675 293.453400,137.270355 
	C291.040894,134.885376 290.549164,132.894699 292.854492,130.616379 
	C297.063538,126.456665 301.276459,122.263481 305.837555,118.509239 
	C309.498871,115.495644 311.028595,112.019783 309.161346,108.672363 
	C307.077972,104.937592 303.131989,103.856796 298.820892,106.085342 
	C296.467804,107.301743 293.968903,108.555168 292.131897,110.389076 
	C287.231323,115.281410 282.653412,120.496956 278.432159,125.059875 
	C269.268494,123.168488 260.059326,119.792725 250.844574,119.777542 
	C241.492813,119.762131 232.135590,123.064087 222.305008,125.007217 
	C218.111862,118.064041 212.385239,111.248131 204.258377,106.785164 
	C199.148148,103.978813 195.128708,104.456764 192.834518,108.175598 
	C190.408356,112.108368 191.863312,116.033562 197.158371,119.109001 
	C203.408142,122.738937 207.955368,127.787270 210.911530,134.492752 
	C198.762772,145.954361 192.542801,159.942184 191.862228,177.066132 
	C193.949677,176.382401 195.496597,175.914993 197.016449,175.371857 
	C212.670486,169.777588 228.229462,163.891876 244.032730,158.757874 
	C248.149155,157.420547 253.370697,157.286560 257.485443,158.550552 
	C270.343079,162.500214 282.914154,167.382828 296.332001,172.149368 
M209.066010,324.423645 
	C210.841187,327.485382 211.681808,331.125061 216.654175,331.083527 
	C239.641785,330.891479 262.632019,331.029358 285.620819,330.927307 
	C287.095551,330.920715 289.331360,330.314484 289.915924,329.264832 
	C294.240417,321.499725 298.235718,313.551300 302.554138,305.237671 
	C267.651215,305.237671 233.749435,305.237671 199.137009,305.237671 
	C202.503647,311.722717 205.625687,317.736633 209.066010,324.423645 
M281.438354,288.879425 
	C284.525391,288.879425 287.612427,288.879425 291.621063,288.879425 
	C287.415924,280.075195 283.723663,272.124847 279.759521,264.312469 
	C279.240906,263.290405 277.331146,262.427185 276.058685,262.417511 
	C259.227325,262.289307 242.394424,262.287415 225.562943,262.403015 
	C224.285263,262.411774 222.365585,263.211884 221.844757,264.215302 
	C217.735657,272.131714 213.894226,280.187042 209.637604,288.879303 
	C233.878067,288.879303 257.167969,288.879303 281.438354,288.879425 
M234.502747,347.125641 
	C229.100052,347.125641 223.697357,347.125641 218.294647,347.125641 
	C217.974350,347.638733 217.654037,348.151825 217.333725,348.664917 
	C222.354996,354.291901 226.417358,361.573578 232.617355,365.166656 
	C242.457245,370.869171 245.367950,378.053497 243.962845,388.604980 
	C243.312012,393.492310 246.580734,396.528473 250.820923,396.547913 
	C254.994781,396.567047 257.827179,393.518005 257.957581,388.613129 
	C258.072632,384.285492 257.782440,379.937561 258.098724,375.629974 
	C258.207794,374.144531 259.297424,372.400909 260.467163,371.380585 
	C265.577911,366.922485 271.151611,362.965576 276.019470,358.269287 
	C279.096252,355.300995 281.224640,351.349609 284.297424,347.125763 
	C267.139343,347.125763 251.320633,347.125763 234.502747,347.125641 
M250.135910,191.299103 
	C243.388184,209.621796 236.640457,227.944489 229.759674,246.628510 
	C244.077484,246.628510 257.800659,246.628510 271.986359,246.628510 
	C271.145630,244.103195 270.498322,241.905472 269.688965,239.769150 
	C264.567627,226.251144 259.435455,212.737091 254.244873,199.245575 
	C253.139191,196.371674 251.778000,193.596054 250.135910,191.299103 
z"/>
<path fill="#FFD7BE" opacity="1.000000" stroke="none" 
	d="
M304.123108,191.852188 
	C325.065094,200.897293 345.874054,209.316467 366.119965,218.922409 
	C380.980316,225.973129 390.746979,237.773987 393.266815,254.744110 
	C396.879852,279.076752 377.963989,303.958313 353.384064,307.010010 
	C333.186584,309.517578 318.245087,301.705811 307.779816,284.402954 
	C294.774170,262.899902 286.873962,239.200958 277.875885,215.971115 
	C273.080902,203.592300 268.522003,191.122070 263.254700,177.089676 
	C277.582245,182.271515 290.665436,187.003326 304.123108,191.852188 
z"/>
<path fill="#FFD7BE" opacity="1.000000" stroke="none" 
	d="
M238.165619,178.155869 
	C233.766907,189.977051 229.734039,201.950485 224.891327,213.586884 
	C215.574783,235.973358 206.354446,258.429443 196.054718,280.368652 
	C186.267365,301.216431 168.501404,310.136200 146.809906,306.879211 
	C128.083755,304.067505 112.030479,287.559814 108.255165,267.233154 
	C105.113441,250.317810 114.013771,230.916458 130.392700,222.146103 
	C145.300812,214.163345 160.666367,206.881882 176.313431,200.470398 
	C196.288727,192.285370 216.749176,185.284302 237.483246,177.867020 
	C237.965958,177.961105 238.165619,178.155869 238.165619,178.155869 
z"/>
<path fill="#FFD7BD" opacity="1.000000" stroke="none" 
	d="
M295.964142,172.026611 
	C282.914154,167.382828 270.343079,162.500214 257.485443,158.550552 
	C253.370697,157.286560 248.149155,157.420547 244.032730,158.757874 
	C228.229462,163.891876 212.670486,169.777588 197.016449,175.371857 
	C195.496597,175.914993 193.949677,176.382401 191.862228,177.066132 
	C192.542801,159.942184 198.762772,145.954361 210.911530,134.492752 
	C207.955368,127.787270 203.408142,122.738937 197.158371,119.109001 
	C191.863312,116.033562 190.408356,112.108368 192.834518,108.175598 
	C195.128708,104.456764 199.148148,103.978813 204.258377,106.785164 
	C212.385239,111.248131 218.111862,118.064041 222.305008,125.007217 
	C232.135590,123.064087 241.492813,119.762131 250.844574,119.777542 
	C260.059326,119.792725 269.268494,123.168488 278.432159,125.059875 
	C282.653412,120.496956 287.231323,115.281410 292.131897,110.389076 
	C293.968903,108.555168 296.467804,107.301743 298.820892,106.085342 
	C303.131989,103.856796 307.077972,104.937592 309.161346,108.672363 
	C311.028595,112.019783 309.498871,115.495644 305.837555,118.509239 
	C301.276459,122.263481 297.063538,126.456665 292.854492,130.616379 
	C290.549164,132.894699 291.040894,134.885376 293.453400,137.270355 
	C303.457916,147.160675 308.295013,159.523972 309.808746,173.330399 
	C309.881042,173.989944 309.901428,174.664566 309.851410,175.324982 
	C309.816010,175.792404 309.620728,176.247726 309.378113,177.149551 
	C304.954498,175.454102 300.643250,173.801743 295.964142,172.026611 
z"/>
<path fill="#FFD8BE" opacity="1.000000" stroke="none" 
	d="
M208.906876,324.087097 
	C205.625687,317.736633 202.503647,311.722717 199.137009,305.237671 
	C233.749435,305.237671 267.651215,305.237671 302.554138,305.237671 
	C298.235718,313.551300 294.240417,321.499725 289.915924,329.264832 
	C289.331360,330.314484 287.095551,330.920715 285.620819,330.927307 
	C262.632019,331.029358 239.641785,330.891479 216.654175,331.083527 
	C211.681808,331.125061 210.841187,327.485382 208.906876,324.087097 
z"/>
<path fill="#FFD4BA" opacity="1.000000" stroke="none" 
	d="
M280.948120,288.879364 
	C257.167969,288.879303 233.878067,288.879303 209.637604,288.879303 
	C213.894226,280.187042 217.735657,272.131714 221.844757,264.215302 
	C222.365585,263.211884 224.285263,262.411774 225.562943,262.403015 
	C242.394424,262.287415 259.227325,262.289307 276.058685,262.417511 
	C277.331146,262.427185 279.240906,263.290405 279.759521,264.312469 
	C283.723663,272.124847 287.415924,280.075195 291.621063,288.879425 
	C287.612427,288.879425 284.525391,288.879425 280.948120,288.879364 
z"/>
<path fill="#FFD5BC" opacity="1.000000" stroke="none" 
	d="
M235.002335,347.125702 
	C251.320633,347.125763 267.139343,347.125763 284.297424,347.125763 
	C281.224640,351.349609 279.096252,355.300995 276.019470,358.269287 
	C271.151611,362.965576 265.577911,366.922485 260.467163,371.380585 
	C259.297424,372.400909 258.207794,374.144531 258.098724,375.629974 
	C257.782440,379.937561 258.072632,384.285492 257.957581,388.613129 
	C257.827179,393.518005 254.994781,396.567047 250.820923,396.547913 
	C246.580734,396.528473 243.312012,393.492310 243.962845,388.604980 
	C245.367950,378.053497 242.457245,370.869171 232.617355,365.166656 
	C226.417358,361.573578 222.354996,354.291901 217.333725,348.664917 
	C217.654037,348.151825 217.974350,347.638733 218.294647,347.125641 
	C223.697357,347.125641 229.100052,347.125641 235.002335,347.125702 
z"/>
<path fill="#FFD5BC" opacity="1.000000" stroke="none" 
	d="
M250.335205,191.037140 
	C251.778000,193.596054 253.139191,196.371674 254.244873,199.245575 
	C259.435455,212.737091 264.567627,226.251144 269.688965,239.769150 
	C270.498322,241.905472 271.145630,244.103195 271.986359,246.628510 
	C257.800659,246.628510 244.077484,246.628510 229.759674,246.628510 
	C236.640457,227.944489 243.388184,209.621796 250.335205,191.037140 
z"/>
<path fill="#FFD7BE" opacity="1.000000" stroke="none" 
	d="
M237.867279,177.862518 
	C237.975113,177.608521 238.181610,177.453094 238.388107,177.297668 
	C238.438675,177.523788 238.489243,177.749924 238.352722,178.065948 
	C238.165619,178.155869 237.965958,177.961105 237.867279,177.862518 
z"/>
</svg>