<svg version="1.1" id="Layer_1" xmlns="http://www.w3.org/2000/svg" xmlns:xlink="http://www.w3.org/1999/xlink" x="0px" y="0px"
	 width="100%" viewBox="0 0 500 500" enable-background="new 0 0 500 500" xml:space="preserve">
<path fill="#FFFFFF" opacity="1.000000" stroke="none" 
	d="
M264.000000,501.000000 
	C176.000015,501.000000 88.500038,501.000000 1.000047,501.000000 
	C1.000031,334.333405 1.000031,167.666794 1.000016,1.000136 
	C167.666565,1.000091 334.333130,1.000091 500.999756,1.000046 
	C500.999847,167.666519 500.999847,334.333038 500.999939,500.999786 
	C422.166656,501.000000 343.333344,501.000000 264.000000,501.000000 
M383.632629,267.059265 
	C387.614746,261.159180 390.258606,254.883057 390.244751,247.548828 
	C390.167480,206.736740 390.300293,165.924072 390.150574,125.112389 
	C390.103516,112.288483 384.096802,102.188759 373.217346,95.795433 
	C338.514740,75.402435 303.647247,55.285934 268.677582,35.353672 
	C257.152435,28.784479 244.916779,28.793831 233.378220,35.376675 
	C198.561539,55.239895 163.836945,75.268822 129.266769,95.557457 
	C118.065910,102.131042 111.903725,112.297417 111.893814,125.625420 
	C111.863846,165.937958 111.849045,206.250595 111.900246,246.563080 
	C111.917313,260.002716 117.900726,270.327057 129.402786,277.040894 
	C163.734955,297.080963 198.156326,316.969604 232.640533,336.747040 
	C244.874405,343.763458 257.451813,343.672424 269.692139,336.638733 
	C303.871307,316.998260 338.025635,297.312714 372.038818,277.387329 
	C376.224060,274.935577 379.493011,270.919739 383.632629,267.059265 
M228.500687,359.993805 
	C222.875412,359.993805 217.250122,359.993805 211.380783,359.993805 
	C210.142212,368.915497 208.967697,377.375732 207.793198,385.835968 
	C206.732559,383.173096 206.279556,380.564972 205.777023,377.966400 
	C205.240860,375.193939 204.621979,372.437256 204.101898,369.661926 
	C202.260483,359.835327 202.269653,359.979126 192.089859,359.911530 
	C188.730240,359.889252 187.462830,361.000336 186.950928,364.263550 
	C185.810165,371.535614 184.273361,378.745544 182.897934,385.980774 
	C182.721268,385.935120 182.544586,385.889465 182.367905,385.843781 
	C181.224274,377.330811 180.080643,368.817841 178.938980,360.319550 
	C172.648468,360.319550 166.900162,360.319550 160.796036,360.319550 
	C161.060913,362.315155 161.198380,363.959259 161.505707,365.571014 
	C164.306320,380.259583 167.199783,394.930725 169.940491,409.630341 
	C172.745926,424.677094 172.684219,424.690857 188.069412,423.970764 
	C188.552826,423.948181 189.029083,423.772461 189.891464,423.584808 
	C191.434158,415.543243 192.996979,407.396881 194.559784,399.250488 
	C194.906021,399.272552 195.252258,399.294586 195.598495,399.316650 
	C197.109467,407.502594 198.620438,415.688538 200.085205,423.624146 
	C206.349899,423.624146 211.929825,423.624146 217.534485,423.624146 
	C221.233719,404.301086 224.864532,385.335480 228.495346,366.369843 
	C229.638229,366.925568 229.882782,367.458466 229.990234,368.017670 
	C232.655014,381.886139 235.363480,395.746582 237.942429,409.631073 
	C240.737686,424.680237 240.684113,424.692474 256.070526,423.970642 
	C256.553925,423.947968 257.030151,423.772034 257.891449,423.584381 
	C259.434631,415.540924 260.997314,407.395874 262.559967,399.250793 
	C262.906128,399.272827 263.252289,399.294861 263.598450,399.316895 
	C265.109528,407.503052 266.620605,415.689178 268.085236,423.623749 
	C274.351013,423.623749 279.930878,423.623749 285.577850,423.623749 
	C289.591980,402.414948 293.539276,381.559204 297.564331,360.292572 
	C291.132324,360.292572 285.387848,360.292572 279.339539,360.292572 
	C278.142792,368.913544 276.967957,377.376923 275.793091,385.840271 
	C274.189514,380.408600 273.114014,375.044708 272.102844,369.668732 
	C270.253784,359.837952 270.268707,359.979492 260.096710,359.912048 
	C256.744537,359.889862 255.463272,360.984863 254.951111,364.256653 
	C253.812073,371.533173 252.273453,378.747192 250.897705,385.986664 
	C250.721359,385.941528 250.544998,385.896362 250.368637,385.851227 
	C249.225266,377.337158 248.081894,368.823090 246.896179,359.993805 
	C240.777084,359.993805 235.138184,359.993805 228.500687,359.993805 
M87.654022,423.438507 
	C101.459785,417.739929 107.552238,403.557495 105.359642,383.873077 
	C102.145264,383.873077 98.854927,383.873077 95.564598,383.873077 
	C82.516762,383.873077 82.514633,383.872681 80.210251,396.544098 
	C80.154686,396.849640 80.288231,397.189606 80.371132,397.781830 
	C82.814560,398.051361 85.323151,398.328064 88.144135,398.639221 
	C87.134720,403.729218 85.362366,407.593628 80.071297,407.872406 
	C74.892555,408.145294 72.303673,404.430481 71.926964,400.086517 
	C71.419670,394.236664 71.139313,388.070435 72.457634,382.436890 
	C73.977554,375.941833 80.455460,374.860046 85.315887,379.470978 
	C86.036575,380.154694 86.646141,380.955566 87.620422,382.056152 
	C91.683990,377.106415 95.546288,372.401825 99.598679,367.465668 
	C94.519814,363.328186 90.231071,359.950043 83.266098,359.382019 
	C73.264725,358.566315 64.523476,360.869202 58.932072,369.351715 
	C51.123783,381.197449 50.359467,394.033356 55.113644,407.084991 
	C60.339634,421.431885 72.053879,427.331421 87.654022,423.438507 
M148.249771,370.195374 
	C147.728500,367.759125 147.474228,365.218231 146.576981,362.929352 
	C146.105316,361.726074 144.531754,360.161804 143.416809,360.130066 
	C135.126740,359.894318 126.826904,360.002197 117.934181,360.002197 
	C118.327507,366.334656 112.441330,372.002380 117.667007,379.216400 
	C114.258247,393.289062 110.601692,408.384735 106.818520,424.003143 
	C110.915382,424.003143 114.387466,424.003204 117.859550,424.003143 
	C125.357674,424.003082 125.250137,423.976593 127.024048,416.770905 
	C127.369438,415.367889 128.773315,413.366333 129.929260,413.186646 
	C133.115601,412.691376 136.429291,413.015442 139.655014,413.015442 
	C140.270355,416.141357 140.541504,418.653351 141.321045,420.996216 
	C141.705811,422.152588 142.990036,423.803619 143.934143,423.849335 
	C149.502487,424.118866 155.090500,423.982056 161.089020,423.982056 
	C156.783524,405.839294 152.647751,388.411621 148.249771,370.195374 
M301.720917,401.500000 
	C301.720917,408.903290 301.720917,416.306549 301.720917,423.717072 
	C312.874786,423.717072 323.140442,423.717072 333.605011,423.717072 
	C334.822479,418.179138 335.989319,412.871490 337.305176,406.885925 
	C331.009918,406.885925 325.262329,406.885925 319.235413,406.885925 
	C319.235413,404.064453 319.235413,401.830231 319.235413,399.020599 
	C323.363831,399.020599 327.325165,399.157257 331.266876,398.939362 
	C332.488342,398.871857 334.464844,398.071381 334.709747,397.211670 
	C335.790619,393.417358 336.365845,389.479004 337.242584,384.985901 
	C330.997986,384.985901 325.242157,384.985901 319.220276,384.985901 
	C319.220276,382.213989 319.220276,379.977814 319.220276,377.142395 
	C323.384064,377.142395 327.342865,377.240784 331.291260,377.081329 
	C332.447968,377.034607 334.405365,376.469940 334.584778,375.777283 
	C336.061768,370.073883 337.206085,364.284363 338.592224,357.868591 
	C336.044098,357.868591 334.404510,357.768616 332.780426,357.884949 
	C322.698517,358.606964 312.619812,359.374298 302.541656,360.147522 
	C302.243011,360.170441 301.962097,360.424713 301.397675,360.710419 
	C300.274078,365.822693 299.111053,371.114410 297.947998,376.406158 
	C298.482635,376.347778 299.017242,376.289429 299.551849,376.231049 
	C300.274689,377.989868 301.548889,379.726410 301.620941,381.511505 
	C301.876129,387.832062 301.720428,394.169189 301.720917,401.500000 
M401.215912,388.545776 
	C401.218079,399.528076 401.295288,410.511169 401.172882,421.492096 
	C401.139679,424.468231 402.081818,425.750397 405.160950,425.627319 
	C409.314453,425.461304 413.495819,425.812103 417.635406,425.519379 
	C424.723297,425.018219 431.778717,424.801880 437.514526,419.207825 
	C447.486420,409.482483 449.139069,397.495331 447.569031,384.680115 
	C445.955566,371.510681 437.580750,361.149933 426.794586,359.505615 
	C419.448029,358.385681 411.878967,358.609924 404.407013,358.552734 
	C403.295868,358.544250 401.478241,360.111450 401.170593,361.265167 
	C399.684448,366.838104 398.602966,372.518951 397.377991,378.161530 
	C397.852905,378.040344 398.327850,377.919128 398.802765,377.797943 
	C399.606934,379.388916 400.701019,380.906036 401.130493,382.592438 
	C401.528442,384.155151 401.215881,385.898834 401.215912,388.545776 
M395.621063,401.500000 
	C395.620667,388.691864 395.532440,375.882721 395.679749,363.076294 
	C395.718048,359.748138 394.923431,358.151581 391.254852,358.387878 
	C387.113464,358.654633 382.921295,358.220612 378.795197,358.587128 
	C377.467468,358.705048 375.506165,360.176941 375.160797,361.403015 
	C373.638641,366.806885 372.600739,372.347168 371.387451,377.838013 
	C371.858154,377.743561 372.328888,377.649109 372.799622,377.554657 
	C373.602295,379.587036 375.064270,381.607941 375.099762,383.653625 
	C375.316223,396.125366 375.322815,408.604370 375.136414,421.077057 
	C375.083160,424.640594 376.322571,425.797119 379.746124,425.601074 
	C383.559418,425.382690 387.408630,425.349487 391.216705,425.609283 
	C394.835297,425.856110 395.798737,424.346893 395.680969,420.961578 
	C395.467133,414.814453 395.620300,408.654572 395.621063,401.500000 
M368.587036,419.581665 
	C368.707367,417.282166 369.108398,414.955536 368.889221,412.688843 
	C368.439728,408.039642 364.960968,404.562592 360.668030,404.035645 
	C355.173279,403.361176 350.617157,406.270599 349.207397,411.354156 
	C347.437500,417.736481 349.947571,423.854401 355.230835,426.035034 
	C360.357239,428.150970 364.998962,426.113586 368.587036,419.581665 
z"/>
<path fill="#FA551D" opacity="1.000000" stroke="none" 
	d="
M383.409607,267.343994 
	C379.493011,270.919739 376.224060,274.935577 372.038818,277.387329 
	C338.025635,297.312714 303.871307,316.998260 269.692139,336.638733 
	C257.451813,343.672424 244.874405,343.763458 232.640533,336.747040 
	C198.156326,316.969604 163.734955,297.080963 129.402786,277.040894 
	C117.900726,270.327057 111.917313,260.002716 111.900246,246.563080 
	C111.849045,206.250595 111.863846,165.937958 111.893814,125.625420 
	C111.903725,112.297417 118.065910,102.131042 129.266769,95.557457 
	C163.836945,75.268822 198.561539,55.239895 233.378220,35.376675 
	C244.916779,28.793831 257.152435,28.784479 268.677582,35.353672 
	C303.647247,55.285934 338.514740,75.402435 373.217346,95.795433 
	C384.096802,102.188759 390.103516,112.288483 390.150574,125.112389 
	C390.300293,165.924072 390.167480,206.736740 390.244751,247.548828 
	C390.258606,254.883057 387.614746,261.159180 383.409607,267.343994 
M241.213623,138.945709 
	C224.580490,145.192673 207.848618,151.193420 191.362091,157.805939 
	C184.624466,160.508301 178.220108,164.213562 172.016098,168.034103 
	C162.629852,173.814362 157.871674,182.702850 158.377106,193.597137 
	C159.046661,208.027969 169.167633,219.213669 182.876465,221.943207 
	C196.675415,224.690689 209.104706,218.727219 215.412231,204.928528 
	C223.414566,187.422134 230.563736,169.523041 237.934006,151.732498 
	C239.626251,147.647736 240.720093,143.315048 242.468735,139.096939 
	C242.457474,138.876434 242.446228,138.655945 242.434952,138.435425 
	C242.282303,138.614578 242.129654,138.793747 241.213623,138.945709 
M334.606201,213.091431 
	C348.756989,197.149796 345.289490,176.385788 326.716461,165.858994 
	C325.848083,165.366821 325.002502,164.808807 324.083862,164.434784 
	C303.769287,156.163620 283.449738,147.904541 263.112061,139.690414 
	C262.156555,139.304489 261.024689,139.355240 259.265167,139.099411 
	C261.645660,145.521729 263.562805,151.358597 265.945923,156.998566 
	C273.054626,173.822266 279.322845,191.110001 287.834869,207.203308 
	C297.660492,225.780228 318.705780,228.024704 334.606201,213.091431 
M214.204025,127.938065 
	C213.678360,131.113800 213.152710,134.289536 212.471100,138.407394 
	C224.061035,134.239563 234.539474,130.527283 244.972275,126.690880 
	C248.880569,125.253693 252.534241,125.172836 256.552399,126.661827 
	C267.127411,130.580612 277.841797,134.123383 288.937317,137.967194 
	C288.790131,129.129547 285.977600,121.670105 280.748291,115.129944 
	C276.505859,109.824059 276.428040,108.653114 281.349731,103.943512 
	C282.777405,102.577362 284.915558,101.818726 286.008087,100.272812 
	C287.265869,98.493118 287.725616,96.149460 288.531982,94.050743 
	C286.353149,93.428047 284.085663,92.117500 282.021393,92.383598 
	C280.105774,92.630539 278.175171,94.323273 276.662445,95.800568 
	C273.715118,98.678848 271.055328,101.851601 268.768219,104.362511 
	C262.579437,103.197220 256.738922,101.210060 250.910995,101.246231 
	C244.913177,101.283463 238.927612,103.293709 233.502792,104.332253 
	C229.375168,100.512558 225.556122,96.315453 221.023712,93.134941 
	C219.383362,91.983864 214.915039,92.277885 213.704376,93.649223 
	C211.342743,96.324310 213.365982,98.788521 216.176102,100.901169 
	C219.603531,103.477905 222.437408,106.844147 224.489746,108.852783 
	C220.628769,115.931717 217.559738,121.558632 214.204025,127.938065 
M256.498718,237.945572 
	C261.664490,237.920120 266.839233,238.057327 271.990723,237.773041 
	C273.597351,237.684357 275.835663,236.887405 276.589386,235.672836 
	C279.362030,231.204834 281.632874,226.425400 284.279877,221.408020 
	C261.788910,221.408020 240.002487,221.408020 217.600937,221.408020 
	C219.981995,226.109558 221.770111,230.438721 224.302765,234.276566 
	C225.429886,235.984543 228.013931,237.615631 230.011581,237.710846 
	C238.492142,238.115021 247.000778,237.930252 256.498718,237.945572 
M274.689697,210.701324 
	C275.331299,210.344940 276.554352,209.718552 276.532043,209.670486 
	C274.088257,204.407745 271.634125,199.144287 268.914337,194.022232 
	C268.577240,193.387375 266.800720,193.328247 265.689575,193.322510 
	C255.860519,193.271835 246.030563,193.244492 236.202362,193.349945 
	C234.828003,193.364700 232.720566,193.721954 232.214951,194.626389 
	C229.440857,199.588791 227.060150,204.771088 224.135941,210.706924 
	C241.582855,210.706924 257.715057,210.706924 274.689697,210.701324 
M231.377960,251.845169 
	C232.970551,253.764938 234.284988,256.041901 236.207016,257.538605 
	C242.392242,262.355133 248.518677,266.932068 246.442780,276.363953 
	C246.251129,277.234741 249.242554,279.762177 250.780960,279.784332 
	C252.269653,279.805786 254.483185,277.864960 255.124130,276.279114 
	C255.946167,274.245209 255.726486,271.690582 255.571930,269.386078 
	C255.362885,266.269135 256.284149,264.374054 259.135345,262.539673 
	C264.492889,259.092712 268.826294,254.432449 272.247620,248.122360 
	C258.398071,248.122360 245.583328,248.145874 232.768784,248.102737 
	C230.175812,248.094009 229.219238,248.799820 231.377960,251.845169 
M241.922729,170.407532 
	C240.429428,174.401169 238.936142,178.394806 237.269730,182.851440 
	C246.642792,182.851440 255.201370,182.851440 264.390625,182.851440 
	C259.839050,170.761307 255.463699,159.139313 250.763474,146.654343 
	C247.625122,155.048615 244.891983,162.359055 241.922729,170.407532 
z"/>
<path fill="#FFA959" opacity="1.000000" stroke="none" 
	d="
M228.999969,359.993805 
	C235.138184,359.993805 240.777084,359.993805 246.896179,359.993805 
	C248.081894,368.823090 249.225266,377.337158 250.368637,385.851227 
	C250.544998,385.896362 250.721359,385.941528 250.897705,385.986664 
	C252.273453,378.747192 253.812073,371.533173 254.951111,364.256653 
	C255.463272,360.984863 256.744537,359.889862 260.096710,359.912048 
	C270.268707,359.979492 270.253784,359.837952 272.102844,369.668732 
	C273.114014,375.044708 274.189514,380.408600 275.793091,385.840271 
	C276.967957,377.376923 278.142792,368.913544 279.339539,360.292572 
	C285.387848,360.292572 291.132324,360.292572 297.564331,360.292572 
	C293.539276,381.559204 289.591980,402.414948 285.577850,423.623749 
	C279.930878,423.623749 274.351013,423.623749 268.085236,423.623749 
	C266.620605,415.689178 265.109528,407.503052 263.598450,399.316895 
	C263.252289,399.294861 262.906128,399.272827 262.559967,399.250793 
	C260.997314,407.395874 259.434631,415.540924 257.891449,423.584381 
	C257.030151,423.772034 256.553925,423.947968 256.070526,423.970642 
	C240.684113,424.692474 240.737686,424.680237 237.942429,409.631073 
	C235.363480,395.746582 232.655014,381.886139 229.990234,368.017670 
	C229.882782,367.458466 229.638229,366.925568 228.495346,366.369843 
	C224.864532,385.335480 221.233719,404.301086 217.534485,423.624146 
	C211.929825,423.624146 206.349899,423.624146 200.085205,423.624146 
	C198.620438,415.688538 197.109467,407.502594 195.598495,399.316650 
	C195.252258,399.294586 194.906021,399.272552 194.559784,399.250488 
	C192.996979,407.396881 191.434158,415.543243 189.891464,423.584808 
	C189.029083,423.772461 188.552826,423.948181 188.069412,423.970764 
	C172.684219,424.690857 172.745926,424.677094 169.940491,409.630341 
	C167.199783,394.930725 164.306320,380.259583 161.505707,365.571014 
	C161.198380,363.959259 161.060913,362.315155 160.796036,360.319550 
	C166.900162,360.319550 172.648468,360.319550 178.938980,360.319550 
	C180.080643,368.817841 181.224274,377.330811 182.367905,385.843781 
	C182.544586,385.889465 182.721268,385.935120 182.897934,385.980774 
	C184.273361,378.745544 185.810165,371.535614 186.950928,364.263550 
	C187.462830,361.000336 188.730240,359.889252 192.089859,359.911530 
	C202.269653,359.979126 202.260483,359.835327 204.101898,369.661926 
	C204.621979,372.437256 205.240860,375.193939 205.777023,377.966400 
	C206.279556,380.564972 206.732559,383.173096 207.793198,385.835968 
	C208.967697,377.375732 210.142212,368.915497 211.380783,359.993805 
	C217.250122,359.993805 222.875412,359.993805 228.999969,359.993805 
z"/>
<path fill="#FFA95A" opacity="1.000000" stroke="none" 
	d="
M87.287048,423.596985 
	C72.053879,427.331421 60.339634,421.431885 55.113644,407.084991 
	C50.359467,394.033356 51.123783,381.197449 58.932072,369.351715 
	C64.523476,360.869202 73.264725,358.566315 83.266098,359.382019 
	C90.231071,359.950043 94.519814,363.328186 99.598679,367.465668 
	C95.546288,372.401825 91.683990,377.106415 87.620422,382.056152 
	C86.646141,380.955566 86.036575,380.154694 85.315887,379.470978 
	C80.455460,374.860046 73.977554,375.941833 72.457634,382.436890 
	C71.139313,388.070435 71.419670,394.236664 71.926964,400.086517 
	C72.303673,404.430481 74.892555,408.145294 80.071297,407.872406 
	C85.362366,407.593628 87.134720,403.729218 88.144135,398.639221 
	C85.323151,398.328064 82.814560,398.051361 80.371132,397.781830 
	C80.288231,397.189606 80.154686,396.849640 80.210251,396.544098 
	C82.514633,383.872681 82.516762,383.873077 95.564598,383.873077 
	C98.854927,383.873077 102.145264,383.873077 105.359642,383.873077 
	C107.552238,403.557495 101.459785,417.739929 87.287048,423.596985 
z"/>
<path fill="#FFA959" opacity="1.000000" stroke="none" 
	d="
M148.380859,370.589661 
	C152.647751,388.411621 156.783524,405.839294 161.089020,423.982056 
	C155.090500,423.982056 149.502487,424.118866 143.934143,423.849335 
	C142.990036,423.803619 141.705811,422.152588 141.321045,420.996216 
	C140.541504,418.653351 140.270355,416.141357 139.655014,413.015442 
	C136.429291,413.015442 133.115601,412.691376 129.929260,413.186646 
	C128.773315,413.366333 127.369438,415.367889 127.024048,416.770905 
	C125.250137,423.976593 125.357674,424.003082 117.859550,424.003143 
	C114.387466,424.003204 110.915382,424.003143 106.818520,424.003143 
	C110.601692,408.384735 114.258247,393.289062 117.667007,379.216400 
	C112.441330,372.002380 118.327507,366.334656 117.934181,360.002197 
	C126.826904,360.002197 135.126740,359.894318 143.416809,360.130066 
	C144.531754,360.161804 146.105316,361.726074 146.576981,362.929352 
	C147.474228,365.218231 147.728500,367.759125 148.380859,370.589661 
M136.199448,391.180054 
	C135.564224,388.355286 134.929016,385.530548 134.293793,382.705780 
	C132.283752,387.432587 131.186707,392.056030 130.135117,396.689819 
	C130.032211,397.143280 130.209198,397.660248 130.289948,398.496704 
	C132.697601,398.496704 135.078781,398.496704 137.912979,398.496704 
	C137.369873,396.116425 136.897003,394.044006 136.199448,391.180054 
z"/>
<path fill="#FFA958" opacity="1.000000" stroke="none" 
	d="
M301.720703,401.000031 
	C301.720428,394.169189 301.876129,387.832062 301.620941,381.511505 
	C301.548889,379.726410 300.274689,377.989868 299.551849,376.231049 
	C299.017242,376.289429 298.482635,376.347778 297.947998,376.406158 
	C299.111053,371.114410 300.274078,365.822693 301.397675,360.710419 
	C301.962097,360.424713 302.243011,360.170441 302.541656,360.147522 
	C312.619812,359.374298 322.698517,358.606964 332.780426,357.884949 
	C334.404510,357.768616 336.044098,357.868591 338.592224,357.868591 
	C337.206085,364.284363 336.061768,370.073883 334.584778,375.777283 
	C334.405365,376.469940 332.447968,377.034607 331.291260,377.081329 
	C327.342865,377.240784 323.384064,377.142395 319.220276,377.142395 
	C319.220276,379.977814 319.220276,382.213989 319.220276,384.985901 
	C325.242157,384.985901 330.997986,384.985901 337.242584,384.985901 
	C336.365845,389.479004 335.790619,393.417358 334.709747,397.211670 
	C334.464844,398.071381 332.488342,398.871857 331.266876,398.939362 
	C327.325165,399.157257 323.363831,399.020599 319.235413,399.020599 
	C319.235413,401.830231 319.235413,404.064453 319.235413,406.885925 
	C325.262329,406.885925 331.009918,406.885925 337.305176,406.885925 
	C335.989319,412.871490 334.822479,418.179138 333.605011,423.717072 
	C323.140442,423.717072 312.874786,423.717072 301.720917,423.717072 
	C301.720917,416.306549 301.720917,408.903290 301.720703,401.000031 
z"/>
<path fill="#FFB168" opacity="1.000000" stroke="none" 
	d="
M401.216064,388.054291 
	C401.215881,385.898834 401.528442,384.155151 401.130493,382.592438 
	C400.701019,380.906036 399.606934,379.388916 398.802765,377.797943 
	C398.327850,377.919128 397.852905,378.040344 397.377991,378.161530 
	C398.602966,372.518951 399.684448,366.838104 401.170593,361.265167 
	C401.478241,360.111450 403.295868,358.544250 404.407013,358.552734 
	C411.878967,358.609924 419.448029,358.385681 426.794586,359.505615 
	C437.580750,361.149933 445.955566,371.510681 447.569031,384.680115 
	C449.139069,397.495331 447.486420,409.482483 437.514526,419.207825 
	C431.778717,424.801880 424.723297,425.018219 417.635406,425.519379 
	C413.495819,425.812103 409.314453,425.461304 405.160950,425.627319 
	C402.081818,425.750397 401.139679,424.468231 401.172882,421.492096 
	C401.295288,410.511169 401.218079,399.528076 401.216064,388.054291 
M404.085907,392.502228 
	C404.085754,398.333954 404.083984,404.165649 404.085815,409.997375 
	C404.090118,423.493408 404.098053,423.609528 417.724335,422.759094 
	C423.660950,422.388641 429.676025,422.070221 434.672760,417.922424 
	C446.877106,407.791595 448.725189,382.247559 438.595886,369.904297 
	C432.678253,362.693237 424.979553,361.930237 416.719269,361.258667 
	C404.246887,360.244598 403.461304,360.619629 401.465424,372.769806 
	C401.305450,373.743744 401.596558,374.884216 401.970612,375.831818 
	C402.540924,377.276611 403.876190,378.581604 403.985565,380.014740 
	C404.276337,383.824860 404.085327,387.671722 404.085907,392.502228 
z"/>
<path fill="#FFAE62" opacity="1.000000" stroke="none" 
	d="
M395.620667,402.000000 
	C395.620300,408.654572 395.467133,414.814453 395.680969,420.961578 
	C395.798737,424.346893 394.835297,425.856110 391.216705,425.609283 
	C387.408630,425.349487 383.559418,425.382690 379.746124,425.601074 
	C376.322571,425.797119 375.083160,424.640594 375.136414,421.077057 
	C375.322815,408.604370 375.316223,396.125366 375.099762,383.653625 
	C375.064270,381.607941 373.602295,379.587036 372.799622,377.554657 
	C372.328888,377.649109 371.858154,377.743561 371.387451,377.838013 
	C372.600739,372.347168 373.638641,366.806885 375.160797,361.403015 
	C375.506165,360.176941 377.467468,358.705048 378.795197,358.587128 
	C382.921295,358.220612 387.113464,358.654633 391.254852,358.387878 
	C394.923431,358.151581 395.718048,359.748138 395.679749,363.076294 
	C395.532440,375.882721 395.620667,388.691864 395.620667,402.000000 
M378.040802,415.411316 
	C378.040802,417.811584 378.040802,420.211884 378.040802,422.839813 
	C382.423889,422.839813 385.940582,423.104340 389.378571,422.699982 
	C390.625092,422.553375 392.670105,420.818481 392.681366,419.789978 
	C392.883636,401.321838 392.884552,382.850311 392.690948,364.381989 
	C392.679596,363.298248 390.746552,361.424164 389.552887,361.289368 
	C378.260437,360.014038 378.252380,360.100159 375.683624,371.313568 
	C375.498474,372.121887 375.086060,372.924316 375.108368,373.720245 
	C375.128479,374.437073 375.568268,375.155853 375.880188,375.847961 
	C376.581390,377.403992 377.919617,378.934418 377.944275,380.491943 
	C378.123413,391.804321 378.040710,403.120819 378.040802,415.411316 
z"/>
<path fill="#FFB26A" opacity="1.000000" stroke="none" 
	d="
M368.418335,419.951233 
	C364.998962,426.113586 360.357239,428.150970 355.230835,426.035034 
	C349.947571,423.854401 347.437500,417.736481 349.207397,411.354156 
	C350.617157,406.270599 355.173279,403.361176 360.668030,404.035645 
	C364.960968,404.562592 368.439728,408.039642 368.889221,412.688843 
	C369.108398,414.955536 368.707367,417.282166 368.418335,419.951233 
M365.341034,410.559448 
	C363.122375,406.108856 359.400848,406.069061 355.572876,407.666962 
	C352.098694,409.117157 350.556396,414.776398 352.213104,419.178131 
	C353.567902,422.777588 356.496948,424.395935 360.149261,423.707214 
	C364.610443,422.866028 366.356415,419.608521 366.164581,415.240356 
	C366.106567,413.918701 365.893005,412.603821 365.341034,410.559448 
z"/>
<path fill="#FFD7BE" opacity="1.000000" stroke="none" 
	d="
M242.089325,139.096466 
	C240.720093,143.315048 239.626251,147.647736 237.934006,151.732498 
	C230.563736,169.523041 223.414566,187.422134 215.412231,204.928528 
	C209.104706,218.727219 196.675415,224.690689 182.876465,221.943207 
	C169.167633,219.213669 159.046661,208.027969 158.377106,193.597137 
	C157.871674,182.702850 162.629852,173.814362 172.016098,168.034103 
	C178.220108,164.213562 184.624466,160.508301 191.362091,157.805939 
	C207.848618,151.193420 224.580490,145.192673 241.623383,138.990234 
	C242.033127,139.034744 242.089325,139.096466 242.089325,139.096466 
z"/>
<path fill="#FFD7BE" opacity="1.000000" stroke="none" 
	d="
M334.357391,213.350708 
	C318.705780,228.024704 297.660492,225.780228 287.834869,207.203308 
	C279.322845,191.110001 273.054626,173.822266 265.945923,156.998566 
	C263.562805,151.358597 261.645660,145.521729 259.265167,139.099411 
	C261.024689,139.355240 262.156555,139.304489 263.112061,139.690414 
	C283.449738,147.904541 303.769287,156.163620 324.083862,164.434784 
	C325.002502,164.808807 325.848083,165.366821 326.716461,165.858994 
	C345.289490,176.385788 348.756989,197.149796 334.357391,213.350708 
z"/>
<path fill="#FFD6BD" opacity="1.000000" stroke="none" 
	d="
M214.347382,127.561806 
	C217.559738,121.558632 220.628769,115.931717 224.489746,108.852783 
	C222.437408,106.844147 219.603531,103.477905 216.176102,100.901169 
	C213.365982,98.788521 211.342743,96.324310 213.704376,93.649223 
	C214.915039,92.277885 219.383362,91.983864 221.023712,93.134941 
	C225.556122,96.315453 229.375168,100.512558 233.502792,104.332253 
	C238.927612,103.293709 244.913177,101.283463 250.910995,101.246231 
	C256.738922,101.210060 262.579437,103.197220 268.768219,104.362511 
	C271.055328,101.851601 273.715118,98.678848 276.662445,95.800568 
	C278.175171,94.323273 280.105774,92.630539 282.021393,92.383598 
	C284.085663,92.117500 286.353149,93.428047 288.531982,94.050743 
	C287.725616,96.149460 287.265869,98.493118 286.008087,100.272812 
	C284.915558,101.818726 282.777405,102.577362 281.349731,103.943512 
	C276.428040,108.653114 276.505859,109.824059 280.748291,115.129944 
	C285.977600,121.670105 288.790131,129.129547 288.937317,137.967194 
	C277.841797,134.123383 267.127411,130.580612 256.552399,126.661827 
	C252.534241,125.172836 248.880569,125.253693 244.972275,126.690880 
	C234.539474,130.527283 224.061035,134.239563 212.471100,138.407394 
	C213.152710,134.289536 213.678360,131.113800 214.347382,127.561806 
z"/>
<path fill="#FFD6BD" opacity="1.000000" stroke="none" 
	d="
M255.998932,237.953094 
	C247.000778,237.930252 238.492142,238.115021 230.011581,237.710846 
	C228.013931,237.615631 225.429886,235.984543 224.302765,234.276566 
	C221.770111,230.438721 219.981995,226.109558 217.600937,221.408020 
	C240.002487,221.408020 261.788910,221.408020 284.279877,221.408020 
	C281.632874,226.425400 279.362030,231.204834 276.589386,235.672836 
	C275.835663,236.887405 273.597351,237.684357 271.990723,237.773041 
	C266.839233,238.057327 261.664490,237.920120 255.998932,237.953094 
z"/>
<path fill="#FFD0B5" opacity="1.000000" stroke="none" 
	d="
M274.268494,210.704132 
	C257.715057,210.706924 241.582855,210.706924 224.135941,210.706924 
	C227.060150,204.771088 229.440857,199.588791 232.214951,194.626389 
	C232.720566,193.721954 234.828003,193.364700 236.202362,193.349945 
	C246.030563,193.244492 255.860519,193.271835 265.689575,193.322510 
	C266.800720,193.328247 268.577240,193.387375 268.914337,194.022232 
	C271.634125,199.144287 274.088257,204.407745 276.532043,209.670486 
	C276.554352,209.718552 275.331299,210.344940 274.268494,210.704132 
z"/>
<path fill="#FFD4BA" opacity="1.000000" stroke="none" 
	d="
M231.161835,251.526306 
	C229.219238,248.799820 230.175812,248.094009 232.768784,248.102737 
	C245.583328,248.145874 258.398071,248.122360 272.247620,248.122360 
	C268.826294,254.432449 264.492889,259.092712 259.135345,262.539673 
	C256.284149,264.374054 255.362885,266.269135 255.571930,269.386078 
	C255.726486,271.690582 255.946167,274.245209 255.124130,276.279114 
	C254.483185,277.864960 252.269653,279.805786 250.780960,279.784332 
	C249.242554,279.762177 246.251129,277.234741 246.442780,276.363953 
	C248.518677,266.932068 242.392242,262.355133 236.207016,257.538605 
	C234.284988,256.041901 232.970551,253.764938 231.161835,251.526306 
z"/>
<path fill="#FFD6BC" opacity="1.000000" stroke="none" 
	d="
M242.040787,170.038513 
	C244.891983,162.359055 247.625122,155.048615 250.763474,146.654343 
	C255.463699,159.139313 259.839050,170.761307 264.390625,182.851440 
	C255.201370,182.851440 246.642792,182.851440 237.269730,182.851440 
	C238.936142,178.394806 240.429428,174.401169 242.040787,170.038513 
z"/>
<path fill="#FFD7BE" opacity="1.000000" stroke="none" 
	d="
M242.005066,139.003815 
	C242.129654,138.793747 242.282303,138.614578 242.434967,138.435425 
	C242.446228,138.655945 242.457474,138.876434 242.279022,139.096710 
	C242.089325,139.096466 242.033127,139.034744 242.005066,139.003815 
z"/>
<path fill="#FFF6EE" opacity="1.000000" stroke="none" 
	d="
M136.311798,391.575806 
	C136.897003,394.044006 137.369873,396.116425 137.912979,398.496704 
	C135.078781,398.496704 132.697601,398.496704 130.289948,398.496704 
	C130.209198,397.660248 130.032211,397.143280 130.135117,396.689819 
	C131.186707,392.056030 132.283752,387.432587 134.293793,382.705780 
	C134.929016,385.530548 135.564224,388.355286 136.311798,391.575806 
z"/>
<path fill="#FFFDFC" opacity="1.000000" stroke="none" 
	d="
M404.085938,392.003113 
	C404.085327,387.671722 404.276337,383.824860 403.985565,380.014740 
	C403.876190,378.581604 402.540924,377.276611 401.970612,375.831818 
	C401.596558,374.884216 401.305450,373.743744 401.465424,372.769806 
	C403.461304,360.619629 404.246887,360.244598 416.719269,361.258667 
	C424.979553,361.930237 432.678253,362.693237 438.595886,369.904297 
	C448.725189,382.247559 446.877106,407.791595 434.672760,417.922424 
	C429.676025,422.070221 423.660950,422.388641 417.724335,422.759094 
	C404.098053,423.609528 404.090118,423.493408 404.085815,409.997375 
	C404.083984,404.165649 404.085754,398.333954 404.085938,392.003113 
M422.605469,407.488129 
	C429.137329,403.822052 431.440063,395.497955 428.999237,384.375549 
	C427.849915,379.138367 424.977753,376.777954 418.893219,376.387054 
	C418.893219,386.192627 418.834106,395.978485 419.020111,405.759705 
	C419.033112,406.445801 420.858856,407.097443 422.605469,407.488129 
z"/>
<path fill="#FFFCFA" opacity="1.000000" stroke="none" 
	d="
M378.040833,414.923676 
	C378.040710,403.120819 378.123413,391.804321 377.944275,380.491943 
	C377.919617,378.934418 376.581390,377.403992 375.880188,375.847961 
	C375.568268,375.155853 375.128479,374.437073 375.108368,373.720245 
	C375.086060,372.924316 375.498474,372.121887 375.683624,371.313568 
	C378.252380,360.100159 378.260437,360.014038 389.552887,361.289368 
	C390.746552,361.424164 392.679596,363.298248 392.690948,364.381989 
	C392.884552,382.850311 392.883636,401.321838 392.681366,419.789978 
	C392.670105,420.818481 390.625092,422.553375 389.378571,422.699982 
	C385.940582,423.104340 382.423889,422.839813 378.040802,422.839813 
	C378.040802,420.211884 378.040802,417.811584 378.040833,414.923676 
z"/>
<path fill="#FFFDFC" opacity="1.000000" stroke="none" 
	d="
M365.545868,410.922668 
	C365.893005,412.603821 366.106567,413.918701 366.164581,415.240356 
	C366.356415,419.608521 364.610443,422.866028 360.149261,423.707214 
	C356.496948,424.395935 353.567902,422.777588 352.213104,419.178131 
	C350.556396,414.776398 352.098694,409.117157 355.572876,407.666962 
	C359.400848,406.069061 363.122375,406.108856 365.545868,410.922668 
z"/>
<path fill="#FFAD62" opacity="1.000000" stroke="none" 
	d="
M422.223572,407.626648 
	C420.858856,407.097443 419.033112,406.445801 419.020111,405.759705 
	C418.834106,395.978485 418.893219,386.192627 418.893219,376.387054 
	C424.977753,376.777954 427.849915,379.138367 428.999237,384.375549 
	C431.440063,395.497955 429.137329,403.822052 422.223572,407.626648 
M425.888458,383.056488 
	C424.636108,381.780090 423.383759,380.503693 421.541870,378.626465 
	C421.541870,388.061249 421.541870,396.250153 421.541870,404.633514 
	C427.203796,401.354645 428.744690,393.827820 425.888458,383.056488 
z"/>
<path fill="#FFF6EE" opacity="1.000000" stroke="none" 
	d="
M425.998962,383.445618 
	C428.744690,393.827820 427.203796,401.354645 421.541870,404.633514 
	C421.541870,396.250153 421.541870,388.061249 421.541870,378.626465 
	C423.383759,380.503693 424.636108,381.780090 425.998962,383.445618 
z"/>
</svg>